<svg width="1186.3275634765625px" height="368.0322265625px" xmlns="http://www.w3.org/2000/svg" viewBox="-343.1637817382813 -109.01611328125 1186.3275634765625 368.0322265625" style="background: none;" preserveAspectRatio="xMidYMid"><defs><linearGradient id="editing-gradient-gradient" x1="0" x2="1" y1="0.5" y2="0.5" gradientUnits="objectBoundingBox"><stop offset="0" stop-color="#54af50"></stop><stop offset="1" stop-color="#5a6cff"></stop></linearGradient></defs><g><g transform="translate(-183.29998779296875, 155.18000030517578)"><path d="M86.72-75.78L86.72-75.78L86.72-75.78Q91.21-75.20 96.29-72.85L96.29-72.85L96.29-72.85Q101.37-70.51 105.76-66.21L105.76-66.21L105.76-66.21Q110.16-61.91 113.09-55.76L113.09-55.76L113.09-55.76Q116.02-49.61 116.02-41.60L116.02-41.60L116.02-41.60Q116.02-31.84 113.09-24.80L113.09-24.80L113.09-24.80Q110.16-17.77 105.76-13.18L105.76-13.18L105.76-13.18Q101.37-8.59 96.19-5.96L96.19-5.96L96.19-5.96Q91.02-3.32 86.23-1.95L86.23-1.95L86.23-1.95Q81.45-0.59 77.73-0.29L77.73-0.29L77.73-0.29Q74.02 0 72.85 0L72.85 0L50.20 0L50.20-17.19L71.48-17.19L71.48-17.19Q81.84-17.19 87.70-23.83L87.70-23.83L87.70-23.83Q93.55-30.47 93.55-41.60L93.55-41.60L93.55-41.60Q93.55-52.15 87.50-59.38L87.50-59.38L87.50-59.38Q81.45-66.60 69.73-66.60L69.73-66.60L50.20-66.60L50.20-82.42L59.57-82.42L59.57-82.42Q63.87-82.42 68.36-82.62L68.36-82.62L68.36-82.62Q72.85-82.81 76.76-84.77L76.76-84.77L76.76-84.77Q80.66-86.72 83.11-91.41L83.11-91.41L83.11-91.41Q85.55-96.09 85.55-104.88L85.55-104.88L85.55-104.88Q85.55-108.40 84.57-112.21L84.57-112.21L84.57-112.21Q83.59-116.02 80.66-119.14L80.66-119.14L80.66-119.14Q77.73-122.27 72.27-124.22L72.27-124.22L72.27-124.22Q66.80-126.17 57.81-126.17L57.81-126.17L50.20-126.17L50.20-143.95L60.16-143.95L60.16-143.95Q69.34-143.95 77.93-141.80L77.93-141.80L77.93-141.80Q86.52-139.65 93.16-134.96L93.16-134.96L93.16-134.96Q99.80-130.27 103.71-122.75L103.71-122.75L103.71-122.75Q107.62-115.23 107.62-104.88L107.62-104.88L107.62-104.88Q107.62-98.83 105.66-93.85L105.66-93.85L105.66-93.85Q103.71-88.87 100.78-85.16L100.78-85.16L100.78-85.16Q97.85-81.45 94.04-79.00L94.04-79.00L94.04-79.00Q90.23-76.56 86.72-75.78ZM18.75 0L18.75-143.95L42.19-143.95L42.19 0L18.75 0ZM146.09-72.66L146.09-72.66L146.09-72.66Q146.09-90.04 150.29-103.42L150.29-103.42L150.29-103.42Q154.49-116.80 162.01-126.07L162.01-126.07L162.01-126.07Q169.53-135.35 179.79-140.33L179.79-140.33L179.79-140.33Q190.04-145.31 202.15-146.09L202.15-146.09L202.15-126.56L202.15-126.56Q195.51-125.78 189.65-122.46L189.65-122.46L189.65-122.46Q183.79-119.14 179.49-112.70L179.49-112.70L179.49-112.70Q175.20-106.25 172.66-96.29L172.66-96.29L172.66-96.29Q170.12-86.33 169.92-72.66L169.92-72.66L169.92-72.66Q170.12-58.79 172.66-48.93L172.66-48.93L172.66-48.93Q175.20-39.06 179.59-32.42L179.59-32.42L179.59-32.42Q183.98-25.78 189.84-22.36L189.84-22.36L189.84-22.36Q195.70-18.95 202.15-18.36L202.15-18.36L202.15 0.98L202.15 0.98Q190.23 0.20 179.88-4.79L179.88-4.79L179.88-4.79Q169.53-9.77 162.01-19.04L162.01-19.04L162.01-19.04Q154.49-28.32 150.29-41.80L150.29-41.80L150.29-41.80Q146.09-55.27 146.09-72.66ZM209.96-126.76L209.96-146.09L209.96-146.09Q221.88-145.51 232.13-140.43L232.13-140.43L232.13-140.43Q242.38-135.35 249.90-126.07L249.90-126.07L249.90-126.07Q257.42-116.80 261.72-103.42L261.72-103.42L261.72-103.42Q266.02-90.04 266.02-72.66L266.02-72.66L266.02-72.66Q266.02-55.27 261.72-41.80L261.72-41.80L261.72-41.80Q257.42-28.32 249.90-19.04L249.90-19.04L249.90-19.04Q242.38-9.77 232.23-4.79L232.23-4.79L232.23-4.79Q222.07 0.20 209.96 0.98L209.96 0.98L209.96-18.36L209.96-18.36Q216.60-19.14 222.46-22.56L222.46-22.56L222.46-22.56Q228.32-25.98 232.62-32.52L232.62-32.52L232.62-32.52Q236.91-39.06 239.45-48.93L239.45-48.93L239.45-48.93Q241.99-58.79 242.19-72.66L242.19-72.66L242.19-72.66Q241.99-86.52 239.45-96.39L239.45-96.39L239.45-96.39Q236.91-106.25 232.52-112.79L232.52-112.79L232.52-112.79Q228.13-119.34 222.27-122.75L222.27-122.75L222.27-122.75Q216.41-126.17 209.96-126.76L209.96-126.76ZM296.09-72.66L296.09-72.66L296.09-72.66Q296.09-90.04 300.29-103.42L300.29-103.42L300.29-103.42Q304.49-116.80 312.01-126.07L312.01-126.07L312.01-126.07Q319.53-135.35 329.79-140.33L329.79-140.33L329.79-140.33Q340.04-145.31 352.15-146.09L352.15-146.09L352.15-126.56L352.15-126.56Q345.51-125.78 339.65-122.46L339.65-122.46L339.65-122.46Q333.79-119.14 329.49-112.70L329.49-112.70L329.49-112.70Q325.20-106.25 322.66-96.29L322.66-96.29L322.66-96.29Q320.12-86.33 319.92-72.66L319.92-72.66L319.92-72.66Q320.12-58.79 322.66-48.93L322.66-48.93L322.66-48.93Q325.20-39.06 329.59-32.42L329.59-32.42L329.59-32.42Q333.98-25.78 339.84-22.36L339.84-22.36L339.84-22.36Q345.70-18.95 352.15-18.36L352.15-18.36L352.15 0.98L352.15 0.98Q340.23 0.20 329.88-4.79L329.88-4.79L329.88-4.79Q319.53-9.77 312.01-19.04L312.01-19.04L312.01-19.04Q304.49-28.32 300.29-41.80L300.29-41.80L300.29-41.80Q296.09-55.27 296.09-72.66ZM359.96-126.76L359.96-146.09L359.96-146.09Q371.88-145.51 382.13-140.43L382.13-140.43L382.13-140.43Q392.38-135.35 399.90-126.07L399.90-126.07L399.90-126.07Q407.42-116.80 411.72-103.42L411.72-103.42L411.72-103.42Q416.02-90.04 416.02-72.66L416.02-72.66L416.02-72.66Q416.02-55.27 411.72-41.80L411.72-41.80L411.72-41.80Q407.42-28.32 399.90-19.04L399.90-19.04L399.90-19.04Q392.38-9.77 382.23-4.79L382.23-4.79L382.23-4.79Q372.07 0.20 359.96 0.98L359.96 0.98L359.96-18.36L359.96-18.36Q366.60-19.14 372.46-22.56L372.46-22.56L372.46-22.56Q378.32-25.98 382.62-32.52L382.62-32.52L382.62-32.52Q386.91-39.06 389.45-48.93L389.45-48.93L389.45-48.93Q391.99-58.79 392.19-72.66L392.19-72.66L392.19-72.66Q391.99-86.52 389.45-96.39L389.45-96.39L389.45-96.39Q386.91-106.25 382.52-112.79L382.52-112.79L382.52-112.79Q378.13-119.34 372.27-122.75L372.27-122.75L372.27-122.75Q366.41-126.17 359.96-126.76L359.96-126.76ZM473.05 0L449.22 0L449.22-143.95L473.05-143.95L473.05 0ZM542.77-143.95L496.68-69.92L546.68 0L519.53 0L481.05-56.64L481.05-85.16L516.02-143.95L542.77-143.95ZM579.69-143.95L603.52-143.95L603.52-17.77L669.73-17.77L669.73 0L579.69 0L579.69-143.95ZM716.02-110.16L716.02 0L692.19 0L692.19-110.16L716.02-110.16ZM718.16-145.31L718.16-145.31L718.16-145.31Q718.16-139.45 714.06-135.45L714.06-135.45L714.06-135.45Q709.96-131.45 704.10-131.45L704.10-131.45L704.10-131.45Q698.24-131.45 694.24-135.55L694.24-135.55L694.24-135.55Q690.23-139.65 690.23-145.31L690.23-145.31L690.23-145.31Q690.23-151.17 694.34-155.27L694.34-155.27L694.34-155.27Q698.44-159.38 704.10-159.38L704.10-159.38L704.10-159.38Q709.96-159.38 714.06-155.27L714.06-155.27L714.06-155.27Q718.16-151.17 718.16-145.31ZM749.22 0L749.22-151.76L772.85-151.76L772.85-13.09L772.85-13.09Q772.66-10.35 772.27-6.84L772.27-6.84L772.27-6.84Q771.88-3.32 771.68 0L771.68 0L749.22 0ZM845.51-76.76L845.51-76.76L845.51-76.76Q847.85-67.77 847.85-57.03L847.85-57.03L847.85-57.03Q847.85-45.90 845.21-35.35L845.21-35.35L845.21-35.35Q842.58-24.80 837.21-16.70L837.21-16.70L837.21-16.70Q831.84-8.59 823.73-3.81L823.73-3.81L823.73-3.81Q815.63 0.98 804.69 0.98L804.69 0.98L804.69 0.98Q797.85 0.98 791.60-0.59L791.60-0.59L791.60-0.59Q785.35-2.15 780.86-4.88L780.86-4.88L780.86-25.20L780.86-25.20Q783.79-21.88 787.79-19.73L787.79-19.73L787.79-19.73Q791.80-17.58 796.68-17.58L796.68-17.58L796.68-17.58Q802.54-17.58 807.32-20.51L807.32-20.51L807.32-20.51Q812.11-23.44 815.53-28.42L815.53-28.42L815.53-28.42Q818.95-33.40 821.00-40.23L821.00-40.23L821.00-40.23Q823.05-47.07 823.05-54.88L823.05-54.88L823.05-54.88Q823.05-62.50 821.19-69.34L821.19-69.34L821.19-69.34Q819.34-76.17 816.11-81.45L816.11-81.45L816.11-81.45Q812.89-86.72 808.20-89.84L808.20-89.84L808.20-89.84Q803.52-92.97 797.66-92.97L797.66-92.97L797.66-92.97Q792.58-92.97 788.38-90.92L788.38-90.92L788.38-90.92Q784.18-88.87 780.86-84.96L780.86-84.96L780.86-105.86L780.86-105.86Q785.35-108.40 790.82-109.77L790.82-109.77L790.82-109.77Q796.29-111.13 802.15-111.13L802.15-111.13L802.15-111.13Q808.59-111.13 815.23-109.38L815.23-109.38L815.23-109.38Q821.88-107.62 827.64-103.52L827.64-103.52L827.64-103.52Q833.40-99.41 838.18-92.77L838.18-92.77L838.18-92.77Q842.97-86.13 845.51-76.76Z" fill="url(#editing-gradient-gradient)"></path></g></g><style>text {
  font-size: 64px;
  font-family: Arial Black;
  dominant-baseline: central;
  text-anchor: middle;
}</style></svg>