<svg id="_404" data-name="404" xmlns="http://www.w3.org/2000/svg" viewBox="0 0 724.94 493.85"><defs><style>.cls-1,.cls-2{fill:#fff;}.cls-2{stroke:#231f20;stroke-miterlimit:10;stroke-width:0.75px;}.cls-3{fill:#8350fc;}.cls-4{fill:#f5b1ff;}.cls-5{fill:#7b0f8f;}.cls-6{fill:#de50fc;}.cls-7{fill:#d396ff;}.cls-8{fill:#fad6e4;}.cls-9{fill:#fef4f3;}.cls-10{fill:#e9ccff;}.cls-11{fill:#b262ec;}.cls-12{fill:#d4ccff;}.cls-13{fill:#24223c;}.cls-14{fill:#f4d822;}.cls-15{fill:#2d2d2d;}.cls-16{fill:#e8bc26;}.cls-17{fill:#fc5e53;}.cls-18{fill:#f35146;}.cls-19{fill:#5061fc;}.cls-20{fill:#2f3cc4;}</style></defs><path class="cls-1" d="M803.45,356c-30.65-36.82-89.24-42.16-126-73.36C637.55,248.87,627.19,201.13,593,162.1c-14.28-16.27-30.56-39.34-50-50-17.5-9.6-36.38-18-57.37-19.59-26.32-2-54.9,7.23-76.7,24.87-21.45,17.36-36.9,42.48-61.77,54.17-31.23,14.68-64.78,4.17-95.29,2-35.66-2.5-72.66,17.28-84.79,50.59-5.43,14.94-5.45,31.26-3,46.9,2.54,15.92,7.93,32.06,18.47,44.85,11.13,13.51,25.83,23.81,35.6,38.51,11.59,17.44,10.65,41,6.84,63s-10.17,44.33-8.27,65.86c2.8,31.64,24.88,58.73,55.69,68.33,39.55,12.32,85.8-3.2,127.84-19.2C437.92,518.08,481.4,501.3,520.69,504c41.44,2.83,75.61,29.09,115,37.82C686.09,553,747.27,537,785.94,497S834.63,393.46,803.45,356Z" transform="translate(-142.37 -82.89)"/><path class="cls-2" d="M639.12,176.72V443.53a33.76,33.76,0,0,1-33.76,33.77H354.06a33.78,33.78,0,0,1-33.77-33.77V176.72c49.11.65,110.65.65,129.19.65H568.05C586.58,177.37,600.37,177.37,639.12,176.72Z" transform="translate(-142.37 -82.89)"/><path class="cls-3" d="M639.41,177.37H320.59A33.77,33.77,0,0,1,354.35,144H605.66A33.76,33.76,0,0,1,639.41,177.37Z" transform="translate(-142.37 -82.89)"/><path class="cls-1" d="M361,160.66a6.17,6.17,0,1,0-6.16,6.17A6.16,6.16,0,0,0,361,160.66Z" transform="translate(-142.37 -82.89)"/><path class="cls-1" d="M380.09,160.66a6.17,6.17,0,1,0-6.17,6.17A6.17,6.17,0,0,0,380.09,160.66Z" transform="translate(-142.37 -82.89)"/><path class="cls-1" d="M399.21,160.66a6.17,6.17,0,1,0-6.17,6.17A6.17,6.17,0,0,0,399.21,160.66Z" transform="translate(-142.37 -82.89)"/><path class="cls-1" d="M540.35,166.83H424.1a6.17,6.17,0,0,1-6.16-6.17h0a6.16,6.16,0,0,1,6.16-6.17H540.35a6.17,6.17,0,0,1,6.17,6.17h0A6.17,6.17,0,0,1,540.35,166.83Z" transform="translate(-142.37 -82.89)"/><path class="cls-4" d="M253.23,330.32l-.3.48-3.21-2,.3-.49C251.09,329,252.18,329.63,253.23,330.32Z" transform="translate(-142.37 -82.89)"/><path class="cls-4" d="M276,358.88l-8.66,2.26-1.45,0c-9.14-.12-17.79-.23-25.82-1.35l-1.14-.16,1.09-.4a63.29,63.29,0,0,0,5.88-2.42c-2.3.72-5.61,1.7-8.91,2.47h-.12a63.52,63.52,0,0,1-21.6-7.82l-.72-.43.83-.11a93.6,93.6,0,0,0,13-2.52c-4.12.6-11.31,1.46-16.17,1.1h-.08l-.06,0-1.71-1.12c-2.16-1.4-2.34-1.51-5.67-4.77l-.45-.44.62-.05a87.21,87.21,0,0,0,10.81-1.5,112.4,112.4,0,0,1-12.5.36H203l-.08-.08c-.7-.72-1.72-1.73-2.89-2.89-3.33-3.29-7.88-7.8-10-10.39l-.15-.18.15-.18c.18-.22,4.57-5.37,19.26-7.15l.11,0,.1.07c.88.65,1.88,1.29,2.94,2,1.38.89,2.85,1.84,4.37,3-1.31-1.27-3-2.85-5.13-4.78l-.5-.44.66-.06c1.32-.11,2.66-.27,4.08-.43,5-.59,10.22-1.2,15.3.06l.1,0,.06.09a28.52,28.52,0,0,1,1.74,2.92c.75,1.38,1.68,3.1,3.25,5.52l0,0c-1.05-2.35-2-5.2-1.68-7.18l.06-.33.32.11a81.56,81.56,0,0,1,14.9,6.79l.09.07,4.53,6-2.1-4.53.84.55c8,5.22,14,11.31,17.9,18.09Zm-8.7,1.69,7.9-2.07-4.43-9.77c-3.69-6.43-9.36-12.26-16.86-17.31l3.49,7.53-7.71-10.18a81.47,81.47,0,0,0-14.42-6.6c-.32,3.78,3.8,10.63,3.84,10.7l-.48.32a82.33,82.33,0,0,1-6-9.47,26.67,26.67,0,0,0-1.63-2.78c-4.95-1.21-10.06-.61-15,0-1.19.14-2.32.27-3.43.37,7.59,6.87,9.07,9,9.13,9.1l-.45.36a45.13,45.13,0,0,0-9.1-7.19c-1-.67-2-1.29-2.88-1.93-12.85,1.58-17.72,5.86-18.62,6.76,2.14,2.6,6.54,6.95,9.77,10.15,1.13,1.12,2.12,2.1,2.82,2.81a127.39,127.39,0,0,0,15.57-.66l2.62-.29-2.5.85c-3.73,1.26-9.26,1.95-13.45,2.32a24.26,24.26,0,0,0,5.13,4.27l1.65,1.08c7.08.51,19.06-1.57,19.18-1.59l2.58-.45-2.42,1c-4.29,1.77-11.15,2.91-15.36,3.49a62.88,62.88,0,0,0,20.62,7.32c5.89-1.36,11.78-3.4,11.84-3.42l2.44-.85L249,355.77a45.57,45.57,0,0,1-7.7,3.58,220,220,0,0,0,24.6,1.2Z" transform="translate(-142.37 -82.89)"/><path class="cls-4" d="M275.72,358.46l-.34.46c-23.9-18.16-73.28-27-73.77-27.07l.09-.56C202.2,331.37,251.71,340.21,275.72,358.46Z" transform="translate(-142.37 -82.89)"/><path class="cls-5" d="M179.56,181.83l-2.49-1.77a.44.44,0,0,1-.09-.62.43.43,0,0,1,.61-.1q1.78,1.29,3.6,2.55h0a.44.44,0,1,1-.51.72Zm4.8,3.25a.45.45,0,0,1-.12-.61.44.44,0,0,1,.61-.12c1.23.8,2.47,1.6,3.71,2.38a.43.43,0,0,1,.14.61.44.44,0,0,1-.61.14c-1.25-.79-2.49-1.58-3.72-2.4Zm-10.82-7.66h0c-1.19-.92-2.36-1.85-3.47-2.76A.44.44,0,0,1,170,174a.43.43,0,0,1,.62-.06c1.11.9,2.27,1.83,3.45,2.74a.44.44,0,0,1,.08.62A.45.45,0,0,1,173.54,177.42Zm18.29,12.38a.45.45,0,0,1-.12-.6.45.45,0,0,1,.61-.14l3.78,2.27a.44.44,0,0,1-.45.76q-1.91-1.12-3.79-2.28Zm-25.11-18,0,0c-1.13-1-2.23-2-3.26-3a.44.44,0,1,1,.61-.63c1,1,2.11,2,3.23,3a.44.44,0,0,1-.54.69Zm-6.36-6.12-.07-.06c-1-1.1-2-2.21-3-3.3a.44.44,0,0,1,.05-.63.45.45,0,0,1,.62.05c.93,1.09,1.92,2.19,2.94,3.27a.43.43,0,0,1,0,.62A.44.44,0,0,1,160.36,165.68ZM154.63,159a.28.28,0,0,1-.1-.09c-.91-1.2-1.77-2.42-2.57-3.63a.44.44,0,1,1,.73-.48c.79,1.19,1.65,2.39,2.54,3.58a.44.44,0,0,1-.6.62Zm-4.87-7.36a.57.57,0,0,1-.13-.14c-.73-1.3-1.42-2.63-2-3.95a.45.45,0,0,1,.21-.59.44.44,0,0,1,.59.21c.62,1.3,1.29,2.61,2,3.89a.43.43,0,0,1-.17.6A.44.44,0,0,1,149.76,151.59Zm-3.76-8a.53.53,0,0,1-.16-.2c-.52-1.39-1-2.81-1.4-4.23a.44.44,0,1,1,.85-.24c.4,1.39.86,2.79,1.38,4.15a.44.44,0,0,1-.26.57A.43.43,0,0,1,146,143.6Zm-2.42-8.48a.45.45,0,0,1-.18-.28c-.21-1-.38-2.06-.52-3.1-.06-.43-.12-.86-.16-1.3a.44.44,0,1,1,.87-.1c0,.43.11.85.16,1.28.14,1,.31,2,.51,3a.44.44,0,0,1-.34.52A.48.48,0,0,1,143.58,135.12Zm-1-8.77a.45.45,0,0,1-.19-.35c0-1.52,0-3,.07-4.46a.43.43,0,0,1,.46-.41.44.44,0,0,1,.42.46c-.09,1.42-.11,2.89-.07,4.38a.44.44,0,0,1-.42.46A.48.48,0,0,1,142.58,126.35Zm.57-8.81a.43.43,0,0,1-.18-.44,35.78,35.78,0,0,1,1-4.35.44.44,0,0,1,.85.25,36.52,36.52,0,0,0-1,4.25.43.43,0,0,1-.51.36A.36.36,0,0,1,143.15,117.54Zm2.54-8.44a.44.44,0,0,1-.15-.54,33.45,33.45,0,0,1,2.12-4,.45.45,0,0,1,.61-.13.43.43,0,0,1,.14.61,30.83,30.83,0,0,0-2.07,3.83.44.44,0,0,1-.58.22Zm4.69-7.46,0,0a.43.43,0,0,1-.06-.62,37.51,37.51,0,0,1,3.06-3.26.44.44,0,0,1,.63,0,.43.43,0,0,1,0,.62,35.67,35.67,0,0,0-3,3.18A.44.44,0,0,1,150.38,101.64Zm6.41-6a.47.47,0,0,1-.1-.1.44.44,0,0,1,.09-.62,42,42,0,0,1,3.71-2.48.43.43,0,0,1,.6.15.44.44,0,0,1-.15.61,41.71,41.71,0,0,0-3.63,2.43A.47.47,0,0,1,156.79,95.59Zm7.57-4.53a.39.39,0,0,1-.14-.17.44.44,0,0,1,.21-.59c1.33-.62,2.72-1.2,4.12-1.7a.45.45,0,0,1,.3.84c-1.37.49-2.74,1-4,1.66A.44.44,0,0,1,164.36,91.06Zm8.32-3a.45.45,0,0,1-.18-.25.44.44,0,0,1,.32-.54c1.43-.37,2.9-.67,4.37-.9a.43.43,0,0,1,.5.36.44.44,0,0,1-.37.51c-1.43.23-2.87.53-4.28.89A.45.45,0,0,1,172.68,88.09Zm8.71-1.39a.44.44,0,0,1,.22-.8c1.46-.1,3-.14,4.45-.13a.44.44,0,0,1,0,.88c-1.47,0-2.95,0-4.38.13A.41.41,0,0,1,181.39,86.7Zm8.83.07a.47.47,0,0,1-.19-.4.44.44,0,0,1,.48-.4c1.45.11,2.94.28,4.42.5a.44.44,0,1,1-.13.87c-1.46-.21-2.93-.38-4.36-.49A.53.53,0,0,1,190.22,86.77ZM199,88a.44.44,0,0,1-.18-.45.45.45,0,0,1,.52-.35c1.43.3,2.88.64,4.33,1a.45.45,0,0,1-.23.86c-1.43-.38-2.87-.72-4.28-1A.46.46,0,0,1,199,88Zm8.55,2.24a.44.44,0,0,1,.38-.78c1.38.43,2.79.91,4.21,1.42a.44.44,0,0,1,.26.57.43.43,0,0,1-.56.26c-1.41-.51-2.81-1-4.17-1.41A.23.23,0,0,1,207.51,90.28Zm8.31,3a.43.43,0,0,1-.16-.52.45.45,0,0,1,.58-.25c1.33.54,2.71,1.12,4.08,1.73a.44.44,0,0,1,.22.59.43.43,0,0,1-.58.22c-1.36-.6-2.73-1.18-4.05-1.72Zm8.09,3.56a.45.45,0,0,1,.44-.77c1.33.61,2.67,1.22,4,1.81a.44.44,0,1,1-.35.81c-1.36-.59-2.71-1.2-4-1.81ZM232,100.3a.44.44,0,0,1,.41-.77c1.48.55,2.85,1,4.16,1.36a.44.44,0,1,1-.23.85c-1.34-.37-2.73-.82-4.24-1.38A.53.53,0,0,1,232,100.3Zm8.52,2.3a.44.44,0,0,1,.32-.8,25.75,25.75,0,0,0,4.32.25.44.44,0,1,1,0,.88,25.65,25.65,0,0,1-4.48-.26A.44.44,0,0,1,240.56,102.6Zm8.77-.37a.44.44,0,0,1,.14-.79c.28-.07.57-.15.85-.24a19.68,19.68,0,0,0,3.19-1.28.44.44,0,1,1,.39.79,22,22,0,0,1-3.32,1.34l-.89.25A.45.45,0,0,1,249.33,102.23Zm7.89-3.85a.36.36,0,0,1-.1-.11.43.43,0,0,1,.1-.61c1-.74,2.14-1.6,3.45-2.7a.44.44,0,1,1,.57.68c-1.33,1.11-2.44,2-3.51,2.74A.44.44,0,0,1,257.22,98.38Zm6.84-5.6L264,92.7a.43.43,0,0,1,0-.62c1.07-.93,2.22-1.91,3.41-2.85a.44.44,0,0,1,.62.08.44.44,0,0,1-.08.62c-1.17.92-2.31,1.9-3.37,2.82A.45.45,0,0,1,264.06,92.78Zm7-5.4a.49.49,0,0,1-.13-.12.44.44,0,0,1,.15-.61,26.51,26.51,0,0,1,2.62-1.45c.46-.21.91-.41,1.37-.6a.45.45,0,0,1,.58.25.45.45,0,0,1-.25.58q-.66.25-1.32.57a25.94,25.94,0,0,0-2.54,1.4A.44.44,0,0,1,271.05,87.38Zm46.16,31.18a.46.46,0,0,1-.19-.31c-.18-1.45-.42-2.9-.73-4.31a.45.45,0,0,1,.34-.53.44.44,0,0,1,.52.34c.32,1.44.57,2.91.75,4.39a.44.44,0,0,1-.38.5A.47.47,0,0,1,317.21,118.56Zm-1.88-8.62a.4.4,0,0,1-.17-.23,43.61,43.61,0,0,0-1.52-4.1.45.45,0,0,1,.82-.35c.57,1.35,1.09,2.76,1.54,4.18a.44.44,0,0,1-.28.56A.44.44,0,0,1,315.33,109.94Zm-36.12-25.8a.42.42,0,0,1-.18-.28.43.43,0,0,1,.35-.51,25.37,25.37,0,0,1,4.47-.46.44.44,0,0,1,0,.88,25.39,25.39,0,0,0-4.31.45A.44.44,0,0,1,279.21,84.14Zm32.67,17.68a.47.47,0,0,1-.13-.15,43.17,43.17,0,0,0-2.29-3.73.43.43,0,0,1,.11-.61.45.45,0,0,1,.62.11,42.35,42.35,0,0,1,2.33,3.8.44.44,0,0,1-.17.6A.46.46,0,0,1,311.88,101.82ZM288,84a.45.45,0,0,1-.19-.43.44.44,0,0,1,.5-.37,30.36,30.36,0,0,1,4.38,1,.44.44,0,0,1-.26.85,28.49,28.49,0,0,0-4.24-1A.54.54,0,0,1,288,84Zm18.85,10.58-.08-.07a34.49,34.49,0,0,0-3.06-3.1.45.45,0,0,1,0-.63.44.44,0,0,1,.63,0,35,35,0,0,1,3.14,3.18.44.44,0,0,1,0,.62A.45.45,0,0,1,306.86,94.56Zm-10.42-8a.44.44,0,0,1-.15-.55.45.45,0,0,1,.59-.21,30.9,30.9,0,0,1,3.73,2.11l.16.11h0a.44.44,0,0,1,.11.61.43.43,0,0,1-.61.12l-.16-.1a29.12,29.12,0,0,0-3.62-2Z" transform="translate(-142.37 -82.89)"/><path class="cls-5" d="M199.53,194.36a.43.43,0,0,1-.13-.58.43.43,0,0,1,.6-.17l1.92,1.11a.44.44,0,1,1-.44.76l-1.92-1.1Z" transform="translate(-142.37 -82.89)"/><polygon class="cls-5" points="118.17 134.75 75.11 110.16 66.69 126.2 118.17 134.75"/><polygon class="cls-6" points="118.17 134.75 78.28 118.68 66.69 126.2 118.17 134.75"/><polygon class="cls-7" points="118.17 134.75 72.41 94.81 75.11 110.16 118.17 134.75"/><polygon class="cls-7" points="118.17 134.75 78.28 118.68 82.85 136.8 118.17 134.75"/><path class="cls-8" d="M688,317.58c.43-1,.84-2.07,1.21-3.09Z" transform="translate(-142.37 -82.89)"/><path class="cls-8" d="M683.23,321l6-6.58a74.39,74.39,0,0,0,3.59-14c-3.35,0-9,5-9,5,5.41-5.62,7.6-6.71,9.38-8.54.43-5.88-1.83-11.64-3.12-16.74-5,8.15-6.68,9.79-6.68,9.79,3.33-4.54,4.55-8.81,6.08-12-3.67-12.58-8.77-15.55-8.77-15.55-2.55,3-7.44,10.43-9.4,13.21a112.29,112.29,0,0,0,2.85,13.6,59.72,59.72,0,0,1-4-11.85,26.93,26.93,0,0,0-3.92,7.29c.59,6.34,4.16,16.59,4.16,16.59-2.25-3.67-4.33-10-5.39-13.5a57.66,57.66,0,0,0-3.5,19.92c2,5,4.66,9.87,4.66,9.87a44.14,44.14,0,0,1-4.63-7c.22,7.52,1.47,15.29,2.79,23.93l3.05,6.87,7.91-5.52C681,331,685.14,324.34,688,317.67Z" transform="translate(-142.37 -82.89)"/><path class="cls-9" d="M673.24,324c-.62,2.62-1.3,5.22-2.12,7.78a42.83,42.83,0,0,1-3.07,7.44l-.11-.07a41.12,41.12,0,0,0,2.83-7.48c.74-2.57,1.34-5.18,1.88-7.8,1.09-5.24,1.94-10.54,2.78-15.83S677,297.38,678,292.1c.53-2.63,1.09-5.27,1.74-7.88s1.38-5.2,2.24-7.75l.11,0c-1.08,5.27-2,10.53-2.9,15.81s-1.89,10.56-2.83,15.84S674.46,318.72,673.24,324Z" transform="translate(-142.37 -82.89)"/><path class="cls-10" d="M693.26,353.42c.77-.67,1.51-1.34,2.22-2Z" transform="translate(-142.37 -82.89)"/><path class="cls-10" d="M687.64,354.1l7.87-2.73a58,58,0,0,0,8.29-10c-3.1-1.52-10.08.09-10.08.09,7-2.21,9.39-2.1,11.68-2.81,2.49-4.7,2.46-10.53,3.09-15.37-7.52,4.48-9.64,5.09-9.64,5.09,4.69-2.25,7.33-5.24,9.86-7.17,1.1-12.14-2.53-17-2.53-17-3.42,1.32-10.57,5.27-13.37,6.69a96,96,0,0,0-2.22,12.62,53.08,53.08,0,0,1,.49-11.72,22,22,0,0,0-6.2,4.28c-1.72,5.54-2.08,15.71-2.08,15.71-.77-4.09-.44-10.29-.16-13.71a45.26,45.26,0,0,0-10.32,15c.11,5.11.78,10.35.78,10.35a43.57,43.57,0,0,1-1.77-7.95c-2.47,6.36-4.09,13.39-6,21.19l.35,7.11,9.25-1a40.68,40.68,0,0,0,18.21-9.37Z" transform="translate(-142.37 -82.89)"/><path class="cls-9" d="M677.4,352c-1.5,1.9-3.06,3.75-4.73,5.51a33.67,33.67,0,0,1-5.47,4.78l-.08-.1a33.29,33.29,0,0,0,5.27-4.93c1.6-1.8,3.08-3.7,4.51-5.63,2.88-3.87,5.55-7.88,8.2-11.91s5.2-8.14,8.06-12c1.42-1.95,2.87-3.89,4.4-5.76s3.12-3.71,4.82-5.43l.1.08c-2.87,3.89-5.6,7.84-8.31,11.83s-5.49,7.92-8.25,11.88S680.39,348.16,677.4,352Z" transform="translate(-142.37 -82.89)"/><path class="cls-7" d="M687.4,378.05c8.24,2.81,11.53,4.55,14.48,4.78a56.46,56.46,0,0,0,12.69-14.22c-10.81,1.64-17-1.68-17-1.68,6.79,2,14.47.48,18.33-.53a82.3,82.3,0,0,0,9.66-26q-6.8-.1-12.62.4a123.92,123.92,0,0,0-9.16,13.06c1.34-4,4.39-9.16,6.73-12.82a79.05,79.05,0,0,0-15.15,3.05c-4.85,5.41-10.62,16.57-10.62,16.57,1.29-4.9,4.94-11.65,7-15.34a60.87,60.87,0,0,0-19.49,12.07c-2.58,5.73-4.58,11.87-4.58,11.87a51.91,51.91,0,0,1,2.2-9.64c-6.13,6-11.67,13.07-17.87,20.93l-3.35,8.07,10.9,3.05c16.87,3,29.54-.34,39-6.54C696,382.08,687.4,378.05,687.4,378.05Z" transform="translate(-142.37 -82.89)"/><path class="cls-11" d="M651.16,387.41a44.67,44.67,0,0,0,8.52-3.14c2.75-1.29,5.41-2.74,8-4.25,5.27-3,10.39-6.3,15.49-9.59s10.14-6.73,15.41-9.81c2.63-1.54,5.28-3,8-4.44s5.46-2.73,8.28-3.89l.06.13c-5.27,3-10.43,6.23-15.57,9.46s-10.35,6.36-15.54,9.54-10.4,6.34-15.76,9.24c-2.69,1.44-5.42,2.81-8.22,4a44.75,44.75,0,0,1-8.67,2.87Z" transform="translate(-142.37 -82.89)"/><path class="cls-8" d="M294.06,282.25c-.18-1.36-.4-2.69-.64-4Z" transform="translate(-142.37 -82.89)"/><path class="cls-8" d="M290.94,289l2.47-10.77a83.64,83.64,0,0,0-5-16.83c-3.77,2.24-6.84,11.18-6.84,11.18,2.43-9.4,4.2-12,5-15-3.34-6.37-9.63-10.84-14.4-15.26C271.8,254,271,256.79,271,256.79c.8-6.9-.6-12.11-.93-16.39-12.3-10.58-20-10.28-20-10.28-.93,4.78-1.6,15.71-2,19.89a133.59,133.59,0,0,0,12,12.18c-4-2.18-8.84-6.4-12.26-9.58-.44,6.08-.3,5.1.32,10.13,4.79,6.17,15.47,14.41,15.47,14.41-4.92-2.31-11.36-7.46-14.85-10.4a65.38,65.38,0,0,0,9,22.92c5.56,3.83,11.66,7.12,11.66,7.12a55.54,55.54,0,0,1-9.77-4.18c5.14,7.63,11.59,14.84,18.7,22.9l7.88,5.09,5.32-10.94c3.33-8.92,3.61-18.53,2.45-27.29Z" transform="translate(-142.37 -82.89)"/><path class="cls-4" d="M281.6,298.61c1,3.12,1.92,6.26,2.66,9.46a48.26,48.26,0,0,1,1.38,9.71h-.16a47.54,47.54,0,0,0-1.68-9.61c-.84-3.15-1.85-6.24-2.95-9.31-2.18-6.15-4.66-12.19-7.17-18.22s-5.17-12-7.4-18.16c-1.13-3.07-2.2-6.16-3.17-9.3s-1.84-6.29-2.52-9.49l.15,0c2.21,6.16,4.58,12.22,7,18.28s4.73,12.16,7.11,18.25S279.56,292.39,281.6,298.61Z" transform="translate(-142.37 -82.89)"/><path class="cls-7" d="M264,305.53c2.72-11.37,4.64-16,4.57-19.95A75.62,75.62,0,0,0,248,270.39c3.54,14.25-.13,22.91-.13,22.91,1.78-9.32-1.16-19.4-3-24.44a110.81,110.81,0,0,0-35.95-9.65c.48,6.07,1.19,11.66,2.12,16.83a166.89,166.89,0,0,0,18.61,10.6c-5.5-1.29-12.8-4.72-18-7.39a106.49,106.49,0,0,0,6,19.87c7.84,5.81,23.48,12.12,23.48,12.12-6.7-1.11-16.2-5.14-21.38-7.5a81.51,81.51,0,0,0,18.58,24.55c8,2.73,16.44,4.64,16.44,4.64a71.27,71.27,0,0,1-13.17-1.74c8.76,7.45,18.95,13.95,30.23,21.26L283,355.92l2.71-15c1.93-22.93-4.16-39.45-13.65-51.35C268.32,293.58,264,305.53,264,305.53Z" transform="translate(-142.37 -82.89)"/><path class="cls-11" d="M281.07,352.81a60,60,0,0,0-5.26-11c-2.07-3.5-4.34-6.89-6.7-10.21-4.69-6.67-9.72-13.1-14.77-19.51s-10.27-12.71-15-19.37c-2.39-3.32-4.73-6.68-7-10.12s-4.33-7-6.24-10.59l.17-.1c4.73,6.67,9.64,13.17,14.6,19.63s9.8,13,14.71,19.58,9.78,13.11,14.34,19.92c2.26,3.41,4.43,6.89,6.4,10.48a60.67,60.67,0,0,1,4.93,11.23Z" transform="translate(-142.37 -82.89)"/><path class="cls-7" d="M512.05,229.39c4.65-8.22,7.13-11.4,8-14.46a53.37,53.37,0,0,0-11.35-15.48c-.8,11.6-5.5,17.57-5.5,17.57,3.48-6.83,3.73-15.11,3.59-19.32A75.65,75.65,0,0,0,483,183.63q-1.62,7.13-2.43,13.31a115.1,115.1,0,0,0,11,11.59c-3.68-2-8.16-6-11.29-9a87,87,0,0,0-.36,16.36c4.31,5.91,14.16,13.65,14.16,13.65-4.6-2.09-10.53-6.94-13.73-9.72A61.22,61.22,0,0,0,488,242.1a125.69,125.69,0,0,0,10.83,6.6,48,48,0,0,1-9.14-3.78c4.59,7.35,10.44,14.23,16.89,21.92l7.31,4.74,5.5-11c6.81-17.23,6.3-31,2.24-41.93C518,221,512.05,229.39,512.05,229.39Z" transform="translate(-142.37 -82.89)"/><path class="cls-11" d="M513.25,268.84a46.91,46.91,0,0,0-1.22-9.42c-.67-3.07-1.52-6.09-2.44-9.08-1.83-6-3.95-11.85-6.1-17.71S499.05,221,497.16,215c-.94-3-1.85-6-2.64-9.06s-1.5-6.14-2-9.28l.15-.05c1.86,6,3.88,11.89,5.95,17.77s4,11.83,6,17.75,4,11.88,5.68,17.94c.83,3,1.59,6.11,2.17,9.23a48.14,48.14,0,0,1,.92,9.54Z" transform="translate(-142.37 -82.89)"/><path class="cls-3" d="M523.72,307.29l-3.09-15.64c-2.71-20.83-.56-37.68,6.37-50.11l.29-.51.34.48a52.94,52.94,0,0,1,4.45,9.55c-.26-1-.51-1.95-.73-2.81-1.24-4.75-2-7.61-2.13-10.16V238l.07-.11a43.84,43.84,0,0,1,14-13.06l.63-.37-.08.73a63,63,0,0,0,0,15,70.36,70.36,0,0,1,1.41-16.26l0-.18.15-.08a54.63,54.63,0,0,1,25.65-5.8l.34,0v.34c.07,5.92,0,11.51-.37,16.63v.15l-.12.1a79,79,0,0,1-10.43,7.25,54.63,54.63,0,0,0,9.78-4.71l.61-.35-.06.7a121,121,0,0,1-3,19.28l0,.1-.08.08c-3.76,3.52-10.22,6.82-13.79,8.5a60,60,0,0,0,12.17-4.71l.76-.38-.24.82a64,64,0,0,1-11.86,22.66l-.07.08-.1,0a84.67,84.67,0,0,1-8.91,2.34,43.17,43.17,0,0,0,6.56-.51l1-.15-.68.76c-5.58,6.21-12.29,11.52-19.4,17.14l-1.26,1Zm3.63-64.85c-6.62,12.23-8.64,28.75-6,49.09l2.93,14.83,7.45-2.12,1.07-.85c6.8-5.37,13.23-10.46,18.63-16.31a32.09,32.09,0,0,1-8.55.18l-2.35-.34,2.35-.39a85.93,85.93,0,0,0,11.46-2.8,62.9,62.9,0,0,0,11.41-21.51c-3.7,1.81-9.85,4.48-14.38,4.85l-2.29.18,2.11-.89c.11,0,10.82-4.61,16-9.43a119.49,119.49,0,0,0,2.87-18.35c-3.55,2-8.31,4.47-12.07,5.13l-2.25.4,2-1.09a86,86,0,0,0,12.6-8.44c.31-5,.43-10.35.37-16.06A54.18,54.18,0,0,0,546,224.18c-1,5-2.34,14.49-.45,23.78l-.7.2c0-.09-3.17-9-1.79-22.34A42.93,42.93,0,0,0,530,238.18c.17,2.44.9,5.26,2.1,9.88.71,2.71,1.59,6.09,2.6,10.37l-.71.19C533.91,258.5,530.26,247.11,527.35,242.44Z" transform="translate(-142.37 -82.89)"/><path class="cls-3" d="M528.05,299.08l-.37-.21,0-.25a61.42,61.42,0,0,1,2.82-10.76c1.06-3,2.31-6.16,3.93-9.82,2.77-6.17,5.73-12,9-18.37q1.62-3.14,3.23-6.28c2-3.86,4-7.85,6.1-11.71,2.77-5.2,6-11.42,9.23-18l.67.32c-3.2,6.62-6.47,12.85-9.25,18.06-2.07,3.85-4.11,7.84-6.09,11.7L544.16,260c-3.3,6.39-6.26,12.18-9,18.34-1.61,3.63-2.85,6.74-3.91,9.75a60.86,60.86,0,0,0-2.78,10.64l-.19,0Z" transform="translate(-142.37 -82.89)"/><path class="cls-5" d="M696,576.72a.67.67,0,0,1-.7-1.05q2-2.71,3.93-5.46a.67.67,0,1,1,1.1.78c-1.3,1.83-2.61,3.66-3.94,5.47A.64.64,0,0,1,696,576.72Zm7.78-11a.67.67,0,0,1-.71-1q1.9-2.78,3.75-5.58a.68.68,0,0,1,1.13.74q-1.86,2.8-3.77,5.6A.65.65,0,0,1,703.81,565.73Zm7.42-11.23a.67.67,0,0,1-.51-.09.68.68,0,0,1-.21-.93q1.82-2.84,3.57-5.69a.67.67,0,0,1,1.15.7q-1.77,2.87-3.58,5.72A.69.69,0,0,1,711.23,554.5Zm7-11.47a.66.66,0,0,1-.49-.07.68.68,0,0,1-.23-.93c1.14-1.93,2.27-3.86,3.37-5.81a.68.68,0,0,1,.92-.25.67.67,0,0,1,.25.92q-1.67,2.93-3.39,5.83A.62.62,0,0,1,718.28,543ZM725,531.34a.71.71,0,0,1-.47-.07.67.67,0,0,1-.27-.91q1.62-3,3.18-5.92a.67.67,0,0,1,.91-.28.65.65,0,0,1,.28.9q-1.56,3-3.19,6A.67.67,0,0,1,725,531.34Zm6.27-11.92a.64.64,0,0,1-.45,0,.68.68,0,0,1-.3-.91l.07-.13c-1.51.31-3,.63-4.55.93a.68.68,0,0,1-.79-.53.66.66,0,0,1,.53-.79q2.79-.56,5.58-1.16,1.08-2.16,2.13-4.34a.68.68,0,0,1,1.22.58c-.6,1.23-1.19,2.45-1.8,3.67a.74.74,0,0,1,.25.39.67.67,0,0,1-.51.8,2.45,2.45,0,0,1-.37.08l-.56,1.11A.64.64,0,0,1,731.22,519.42Zm7.94-3a.66.66,0,0,1-.8-.5.67.67,0,0,1,.5-.81q3.27-.76,6.52-1.61a.66.66,0,0,1,.82.49.67.67,0,0,1-.48.82c-2.18.56-4.36,1.09-6.55,1.61Zm13.05-3.34a.67.67,0,0,1-.33-1.3c2.16-.6,4.31-1.21,6.46-1.85a.64.64,0,0,1,.83.46.66.66,0,0,1-.45.83q-3.24,1-6.49,1.85ZM719.4,520.5h0c-2.21.4-4.43.77-6.64,1.13a.67.67,0,1,1-.22-1.33q3.32-.52,6.63-1.13a.67.67,0,0,1,.27,1.32Zm45.71-11.26a.67.67,0,0,1-.35-1.3q3.21-1,6.39-2.08a.66.66,0,0,1,.85.43.67.67,0,0,1-.42.85q-3.2,1.07-6.41,2.09Zm-59,13.4h-.06q-3.34.47-6.69.88a.67.67,0,0,1-.16-1.34q3.33-.41,6.66-.88a.68.68,0,0,1,.76.57A.69.69,0,0,1,706.11,522.64ZM777.88,505a.69.69,0,0,1-.79-.43.68.68,0,0,1,.41-.86c2.11-.75,4.22-1.52,6.31-2.31a.67.67,0,1,1,.48,1.25c-2.11.8-4.22,1.57-6.33,2.33Zm-85.14,19.3h-.09c-2.44.23-4.65.38-6.76.45a.67.67,0,0,1-.69-.65.68.68,0,0,1,.65-.7c2.08-.07,4.26-.21,6.68-.44a.67.67,0,0,1,.21,1.33Zm97.73-24.05a.68.68,0,0,1-.77-.41.66.66,0,0,1,.38-.87q3.12-1.24,6.22-2.55a.67.67,0,0,1,.88.36.68.68,0,0,1-.36.88q-3.12,1.31-6.25,2.56ZM679.29,524.66l-.19,0a50.15,50.15,0,0,1-6.77-.79.67.67,0,0,1-.53-.78.68.68,0,0,1,.78-.54,49.35,49.35,0,0,0,6.59.76.67.67,0,0,1,.64.71A.66.66,0,0,1,679.29,524.66ZM802.88,495a.67.67,0,0,1-.76-.39.66.66,0,0,1,.34-.88q3.07-1.37,6.12-2.78a.67.67,0,0,1,.57,1.22q-3.06,1.43-6.14,2.79ZM737.07,507.3a.65.65,0,0,1-.43-.05.67.67,0,0,1-.33-.89q1.41-3.06,2.76-6.13a.69.69,0,0,1,.89-.35.68.68,0,0,1,.34.89q-1.35,3.09-2.77,6.15A.67.67,0,0,1,737.07,507.3Zm78-18a.66.66,0,0,1-.75-.36.67.67,0,0,1,.3-.9l1.46-.71a.67.67,0,1,1,.59,1.2l-1.45.72A.44.44,0,0,1,815.09,489.3ZM666.16,522a.71.71,0,0,1-.41,0,22.35,22.35,0,0,1-5.92-3.56.67.67,0,0,1-.08-.95.68.68,0,0,1,1-.08,20.91,20.91,0,0,0,5.56,3.34.67.67,0,0,1,.37.88A.69.69,0,0,1,666.16,522Zm76.32-27a.69.69,0,0,1-.4,0,.67.67,0,0,1-.37-.88c.92-2.27,1.68-4.32,2.3-6.27a.67.67,0,1,1,1.28.41c-.63,2-1.4,4.07-2.33,6.37A.69.69,0,0,1,742.48,495Zm-86.26,18.38a.67.67,0,0,1-.75-.34,19.92,19.92,0,0,1-1.82-4.91c-.13-.56-.23-1.12-.31-1.68a.69.69,0,0,1,.57-.76.67.67,0,0,1,.76.57c.08.52.17,1,.29,1.56a18.94,18.94,0,0,0,1.7,4.59.67.67,0,0,1-.28.91A.52.52,0,0,1,656.22,513.35Zm90.23-31.22a.62.62,0,0,1-.27,0,.67.67,0,0,1-.54-.78,31.07,31.07,0,0,0,.5-6.55.67.67,0,0,1,1.34-.06,31.92,31.92,0,0,1-.52,6.85A.69.69,0,0,1,746.45,482.13Zm-92.28,18.14a.52.52,0,0,1-.25,0,.67.67,0,0,1-.57-.76,30.14,30.14,0,0,1,1.77-6.64.68.68,0,0,1,1.26.5,28.35,28.35,0,0,0-1.7,6.33A.66.66,0,0,1,654.17,500.27Zm91.45-31.4a.69.69,0,0,1-.78-.41,16,16,0,0,0-3.31-5.12l-.23-.23a.68.68,0,0,1,1-.95l.24.25a17.25,17.25,0,0,1,3.59,5.55.67.67,0,0,1-.37.87Zm-86.68,18.92a.64.64,0,0,1-.5-.09.67.67,0,0,1-.22-.92,44.7,44.7,0,0,1,4.07-5.49.67.67,0,1,1,1,.88,44.75,44.75,0,0,0-3.94,5.32A.67.67,0,0,1,658.94,487.79Zm8.73-10.19a.68.68,0,0,1-.65-.21.67.67,0,0,1,.06-.95l.6-.53c1.47-1.27,3.06-2.51,4.73-3.69a.67.67,0,0,1,.78,1.1c-1.63,1.15-3.19,2.37-4.63,3.61l-.59.52A.61.61,0,0,1,667.67,477.6Zm68.77-18.14a.68.68,0,0,1-.44,0,26.62,26.62,0,0,0-6.23-2,.67.67,0,0,1,.26-1.32,28,28,0,0,1,6.55,2.11.66.66,0,0,1,.32.89A.64.64,0,0,1,736.44,459.46ZM678.62,469.8a.7.7,0,0,1-.74-.32.68.68,0,0,1,.25-.92c1.89-1.1,3.91-2.16,6-3.17a.67.67,0,0,1,.9.31.68.68,0,0,1-.31.9c-2.06,1-4,2-5.91,3.12A.71.71,0,0,1,678.62,469.8Zm44.74-13.09a.44.44,0,0,1-.16,0,54.37,54.37,0,0,0-6.65.27.67.67,0,0,1-.73-.61.65.65,0,0,1,.6-.73,53.08,53.08,0,0,1,6.81-.27.66.66,0,0,1,.65.68A.65.65,0,0,1,723.36,456.71Zm-32.64,7.21a.67.67,0,0,1-.41-1.28c2-.82,4.14-1.62,6.34-2.39a.67.67,0,0,1,.44,1.27c-2.17.76-4.28,1.56-6.27,2.37Zm12.71-4.41a.68.68,0,0,1-.8-.48.66.66,0,0,1,.47-.82c2.24-.63,4.41-1.14,6.6-1.57A.67.67,0,0,1,710,458h0c-2.15.41-4.29.92-6.5,1.53Z" transform="translate(-142.37 -82.89)"/><polygon class="cls-5" points="724.94 372.86 677.31 389.43 683.98 406.6 724.94 372.86"/><polygon class="cls-6" points="724.94 372.86 685.96 392.7 683.98 406.6 724.94 372.86"/><polygon class="cls-7" points="724.94 372.86 663.74 381.25 677.31 389.43 724.94 372.86"/><polygon class="cls-7" points="724.94 372.86 685.96 392.7 702.9 401.3 724.94 372.86"/><path class="cls-8" d="M423.52,213.09c-6.25,0-8.73,2.58-8.73,8.14,0,.51-1,.51-1,0,0-5.56-2-8.14-8.72-8.14-.51,0-.51-1,0-1,6.95,0,8.72-3.22,8.72-8.13,0-.51,1-.51,1,0,0,5.85,2.37,8.13,8.73,8.13C424,212.11,424,213.09,423.52,213.09Z" transform="translate(-142.37 -82.89)"/><path class="cls-8" d="M603.88,246c-6.26,0-8.73,2.58-8.73,8.14,0,.51-1,.51-1,0,0-5.56-2-8.14-8.72-8.14-.51,0-.51-1,0-1,6.95,0,8.72-3.22,8.72-8.13,0-.51,1-.51,1,0,0,5.85,2.37,8.13,8.73,8.13C604.38,245,604.38,246,603.88,246Z" transform="translate(-142.37 -82.89)"/><path class="cls-3" d="M710.4,238.28c-5.38,0-7.5,2.22-7.5,7,0,.44-.84.44-.84,0,0-4.78-1.7-7-7.5-7-.44,0-.44-.84,0-.84,6,0,7.5-2.77,7.5-7,0-.44.84-.44.84,0,0,5,2,7,7.5,7C710.83,237.44,710.83,238.28,710.4,238.28Z" transform="translate(-142.37 -82.89)"/><path class="cls-3" d="M677.61,195.54c-7.13,0-9.94,2.94-9.94,9.27,0,.59-1.11.59-1.11,0,0-6.33-2.25-9.27-9.94-9.27-.57,0-.57-1.11,0-1.11,7.93,0,9.94-3.67,9.94-9.27,0-.58,1.11-.58,1.11,0,0,6.67,2.7,9.27,9.94,9.27C678.18,194.43,678.18,195.54,677.61,195.54Z" transform="translate(-142.37 -82.89)"/><path class="cls-3" d="M727.42,156.65c-12.56,0-17.52,5.18-17.52,16.34,0,1-1.95,1-1.95,0,0-11.16-4-16.34-17.52-16.34-1,0-1-2,0-2,14,0,17.52-6.46,17.52-16.33,0-1,1.95-1,1.95,0,0,11.75,4.75,16.33,17.52,16.33C728.43,154.69,728.43,156.65,727.42,156.65Z" transform="translate(-142.37 -82.89)"/><path class="cls-3" d="M363.55,438.09a14.33,14.33,0,0,1-.6,4.26,9.91,9.91,0,0,1-1.72,3.33,7.63,7.63,0,0,1-2.81,2.17,9,9,0,0,1-3.82.78,9.51,9.51,0,0,1-2.63-.35,10.11,10.11,0,0,1-2-.77v7.86H345.3V428.59c1-.25,2.13-.5,3.53-.73a27.12,27.12,0,0,1,4.42-.35,11.86,11.86,0,0,1,4.3.74,8.93,8.93,0,0,1,3.23,2.11,9.42,9.42,0,0,1,2.06,3.33A12.93,12.93,0,0,1,363.55,438.09Zm-4.8.08a7.54,7.54,0,0,0-1.42-4.89,5.52,5.52,0,0,0-4.55-1.74c-.44,0-.9,0-1.37.06a7.68,7.68,0,0,0-1.42.25v11.59a7.07,7.07,0,0,0,1.65.79,6.3,6.3,0,0,0,2.19.37,4.19,4.19,0,0,0,3.74-1.75A8.27,8.27,0,0,0,358.75,438.17Z" transform="translate(-142.37 -82.89)"/><path class="cls-3" d="M375.14,427.43a11.64,11.64,0,0,1,3.91.58,6.24,6.24,0,0,1,2.54,1.63,6.11,6.11,0,0,1,1.36,2.54,12.46,12.46,0,0,1,.41,3.27v12.29c-.73.15-1.82.34-3.28.56a33.41,33.41,0,0,1-4.94.33,15,15,0,0,1-3.33-.35,7.06,7.06,0,0,1-2.58-1.12,5.33,5.33,0,0,1-1.67-2,7,7,0,0,1-.6-3.06,6,6,0,0,1,.68-2.95,5.54,5.54,0,0,1,1.84-1.95,7.86,7.86,0,0,1,2.7-1.09,15.07,15.07,0,0,1,3.19-.33,15.64,15.64,0,0,1,1.63.1,13.27,13.27,0,0,1,1.82.33v-.77a6.12,6.12,0,0,0-.19-1.56,3.21,3.21,0,0,0-.68-1.29,3.15,3.15,0,0,0-1.28-.88,5.67,5.67,0,0,0-2-.3,17.3,17.3,0,0,0-3,.23,12.53,12.53,0,0,0-2.21.54l-.58-3.8a19.77,19.77,0,0,1,2.6-.62A20.92,20.92,0,0,1,375.14,427.43Zm.39,17.48a17.94,17.94,0,0,0,3.29-.23v-5.2c-.26-.07-.63-.15-1.12-.23a10.22,10.22,0,0,0-1.63-.12,10.47,10.47,0,0,0-1.57.12,4.78,4.78,0,0,0-1.43.43,2.57,2.57,0,0,0-1,.87,2.42,2.42,0,0,0-.39,1.41,2.48,2.48,0,0,0,1.05,2.31A5.37,5.37,0,0,0,375.53,444.91Z" transform="translate(-142.37 -82.89)"/><path class="cls-3" d="M405.83,446.15q0,4.85-2.46,7.09t-7.54,2.25a21.47,21.47,0,0,1-3.62-.31,20.15,20.15,0,0,1-3.2-.82l.86-4a14.43,14.43,0,0,0,2.73.82,17.16,17.16,0,0,0,3.31.31,5.66,5.66,0,0,0,4-1.17,4.57,4.57,0,0,0,1.2-3.44v-.78a12,12,0,0,1-1.84.7,9,9,0,0,1-2.61.35,9.83,9.83,0,0,1-3.55-.62,7.52,7.52,0,0,1-2.75-1.82,8.38,8.38,0,0,1-1.78-3,12.33,12.33,0,0,1-.64-4.16,11.82,11.82,0,0,1,.67-4.07,8.92,8.92,0,0,1,2-3.18,9,9,0,0,1,3.16-2.05,11.42,11.42,0,0,1,4.22-.74,26.13,26.13,0,0,1,4.34.35c1.37.23,2.53.48,3.49.73Zm-13.06-8.6a6.18,6.18,0,0,0,1.3,4.36,4.42,4.42,0,0,0,3.35,1.37,6.86,6.86,0,0,0,2.11-.31,6.23,6.23,0,0,0,1.61-.73V431.73c-.33-.07-.75-.15-1.24-.21a15.5,15.5,0,0,0-1.86-.1,4.74,4.74,0,0,0-3.91,1.69A6.82,6.82,0,0,0,392.77,437.55Z" transform="translate(-142.37 -82.89)"/><path class="cls-3" d="M410.67,438.17a12.69,12.69,0,0,1,.8-4.69,9.88,9.88,0,0,1,2.11-3.36,8.78,8.78,0,0,1,3-2,9.42,9.42,0,0,1,3.49-.68,8.35,8.35,0,0,1,6.53,2.6c1.56,1.73,2.35,4.31,2.35,7.75,0,.26,0,.55,0,.87s0,.61-.06.87H415.52a5.34,5.34,0,0,0,1.72,3.78,6.56,6.56,0,0,0,4.44,1.34,15,15,0,0,0,3.12-.31,13.41,13.41,0,0,0,2.23-.66l.62,3.84a7.51,7.51,0,0,1-1.07.4c-.45.14-1,.27-1.55.39s-1.21.21-1.88.29a17.24,17.24,0,0,1-2,.12,12.43,12.43,0,0,1-4.65-.8,8.64,8.64,0,0,1-3.26-2.21,9.14,9.14,0,0,1-1.9-3.33A13.7,13.7,0,0,1,410.67,438.17Zm13.61-2.1a5.9,5.9,0,0,0-.28-1.84,4.44,4.44,0,0,0-.79-1.51,3.85,3.85,0,0,0-1.28-1,4.13,4.13,0,0,0-1.8-.36,4.22,4.22,0,0,0-1.9.4,4.27,4.27,0,0,0-1.37,1.07,4.83,4.83,0,0,0-.88,1.51,8.82,8.82,0,0,0-.42,1.74Z" transform="translate(-142.37 -82.89)"/><path class="cls-3" d="M443,428.59a33.21,33.21,0,0,1,3.53-.73,30.76,30.76,0,0,1,4.81-.35,11.06,11.06,0,0,1,4.14.68,6.43,6.43,0,0,1,2.66,1.9,7.17,7.17,0,0,1,1.39,2.94,16.53,16.53,0,0,1,.41,3.78V448.2H455.2V437.55a15.55,15.55,0,0,0-.21-2.77,5,5,0,0,0-.7-1.86,2.75,2.75,0,0,0-1.32-1.05,5.5,5.5,0,0,0-2-.33,15,15,0,0,0-1.86.12c-.65.07-1.13.14-1.44.19V448.2H443Z" transform="translate(-142.37 -82.89)"/><path class="cls-3" d="M484,438.05a13.24,13.24,0,0,1-.69,4.38,9.79,9.79,0,0,1-2,3.37A8.92,8.92,0,0,1,478.2,448a9.9,9.9,0,0,1-4,.78,9.79,9.79,0,0,1-4-.78,8.93,8.93,0,0,1-3.06-2.17,9.81,9.81,0,0,1-2-3.37,12.74,12.74,0,0,1-.72-4.38,12.58,12.58,0,0,1,.72-4.36,9.79,9.79,0,0,1,2-3.35,8.88,8.88,0,0,1,3.08-2.15,10.52,10.52,0,0,1,7.85,0,8.61,8.61,0,0,1,3.08,2.15,10.09,10.09,0,0,1,2,3.35A12.82,12.82,0,0,1,484,438.05Zm-4.8,0a8,8,0,0,0-1.3-4.79,4.61,4.61,0,0,0-7.25,0,8,8,0,0,0-1.3,4.79,8.08,8.08,0,0,0,1.3,4.84,4.57,4.57,0,0,0,7.25,0A8.08,8.08,0,0,0,479.15,438.05Z" transform="translate(-142.37 -82.89)"/><path class="cls-3" d="M488.56,422.59l4.69-.78v6.13h7.21v3.91h-7.21v8.25a6,6,0,0,0,.78,3.49,3,3,0,0,0,2.63,1.05,8.67,8.67,0,0,0,2.27-.27,13.92,13.92,0,0,0,1.57-.51l.77,3.72a16.77,16.77,0,0,1-2.13.72,11.81,11.81,0,0,1-3.1.37,10,10,0,0,1-3.62-.58,5.36,5.36,0,0,1-2.31-1.69,6.67,6.67,0,0,1-1.2-2.67,16.8,16.8,0,0,1-.35-3.59Z" transform="translate(-142.37 -82.89)"/><path class="cls-3" d="M522.28,418.13a12.79,12.79,0,0,1,2.86.29A15.87,15.87,0,0,1,527,419l-.89,3.87a7.23,7.23,0,0,0-1.53-.5,8.6,8.6,0,0,0-1.88-.2,4.86,4.86,0,0,0-1.9.33,3.23,3.23,0,0,0-1.24.91,3.38,3.38,0,0,0-.65,1.42,7.81,7.81,0,0,0-.2,1.8v1.36h7.36v3.91h-7.36V448.2H514V426.5a8.72,8.72,0,0,1,2.06-6.14C517.45,418.87,519.51,418.13,522.28,418.13Z" transform="translate(-142.37 -82.89)"/><path class="cls-3" d="M547.46,438.05a13.24,13.24,0,0,1-.69,4.38,9.79,9.79,0,0,1-2,3.37,8.92,8.92,0,0,1-3.08,2.17,9.9,9.9,0,0,1-4,.78,9.7,9.7,0,0,1-4-.78,9.07,9.07,0,0,1-3.07-2.17,10,10,0,0,1-2-3.37,12.74,12.74,0,0,1-.72-4.38,12.58,12.58,0,0,1,.72-4.36,10,10,0,0,1,2-3.35,9,9,0,0,1,3.08-2.15,10.52,10.52,0,0,1,7.85,0,8.61,8.61,0,0,1,3.08,2.15,10.09,10.09,0,0,1,2,3.35A12.58,12.58,0,0,1,547.46,438.05Zm-4.8,0a7.89,7.89,0,0,0-1.3-4.79,4.61,4.61,0,0,0-7.25,0,8,8,0,0,0-1.29,4.79,8.08,8.08,0,0,0,1.29,4.84,4.57,4.57,0,0,0,7.25,0A8,8,0,0,0,542.66,438.05Z" transform="translate(-142.37 -82.89)"/><path class="cls-3" d="M568.93,447.58c-.9.24-2.08.47-3.52.72a29.24,29.24,0,0,1-4.77.37,10.42,10.42,0,0,1-4.09-.7,6.47,6.47,0,0,1-2.63-1.94,7.62,7.62,0,0,1-1.42-3,16,16,0,0,1-.42-3.78V427.94h4.69v10.61a8.6,8.6,0,0,0,.94,4.65,3.74,3.74,0,0,0,3.32,1.4c.57,0,1.17,0,1.8-.08a9.07,9.07,0,0,0,1.41-.19V427.94h4.69Z" transform="translate(-142.37 -82.89)"/><path class="cls-3" d="M574.9,428.59a32.69,32.69,0,0,1,3.53-.73,30.54,30.54,0,0,1,4.8-.35,11.12,11.12,0,0,1,4.15.68,6.39,6.39,0,0,1,2.65,1.9,7.18,7.18,0,0,1,1.4,2.94,16.54,16.54,0,0,1,.4,3.78V448.2h-4.69V437.55a15.55,15.55,0,0,0-.21-2.77,4.67,4.67,0,0,0-.7-1.86,2.77,2.77,0,0,0-1.31-1.05,5.59,5.59,0,0,0-2-.33,15.25,15.25,0,0,0-1.86.12c-.64.07-1.12.14-1.43.19V448.2H574.9Z" transform="translate(-142.37 -82.89)"/><path class="cls-3" d="M614.7,447.58a28,28,0,0,1-3.51.78,27.55,27.55,0,0,1-4.44.35,11.86,11.86,0,0,1-4.3-.74,8.93,8.93,0,0,1-3.23-2.11,9.28,9.28,0,0,1-2.06-3.33,12.73,12.73,0,0,1-.71-4.4,14.83,14.83,0,0,1,.6-4.36,9.39,9.39,0,0,1,1.76-3.35,7.92,7.92,0,0,1,2.83-2.16,9.25,9.25,0,0,1,3.83-.75,8.84,8.84,0,0,1,2.6.35,11.69,11.69,0,0,1,1.94.77v-9.72l4.69-.78ZM601.25,438a7.35,7.35,0,0,0,1.47,4.86,5,5,0,0,0,4.07,1.77,15.05,15.05,0,0,0,1.92-.1,11.43,11.43,0,0,0,1.3-.21V432.7a7.27,7.27,0,0,0-1.65-.79,6.3,6.3,0,0,0-2.19-.37,4.21,4.21,0,0,0-3.74,1.74A8.32,8.32,0,0,0,601.25,438Z" transform="translate(-142.37 -82.89)"/><path class="cls-12" d="M382.91,242.83V339.4h17.18v28.32H382.91v36H349v-36H279.61v-25.3q5.1-10.21,12.77-23.1t17.06-26.46q9.4-13.59,19.85-26.58a288.78,288.78,0,0,1,20.89-23.45ZM349,285.08q-9.06,11.84-19.27,25.77a176.44,176.44,0,0,0-17.18,28.55H349Z" transform="translate(-142.37 -82.89)"/><path class="cls-12" d="M496.28,373.77a14.94,14.94,0,0,1-3.44,2.11,17,17,0,0,0,3.5-1.26Zm47-67.63q-.42-4.53-1.08-8.78c-.23-1.42-.46-2.81-.72-4.17-.14-.69-.27-1.36-.41-2-.28-1.34-.58-2.65-.9-3.95-.17-.64-.33-1.29-.5-1.92-.35-1.27-.71-2.51-1.09-3.73s-.78-2.42-1.2-3.59c-.85-2.35-1.78-4.59-2.78-6.74-.75-1.62-1.55-3.17-2.4-4.68-.56-1-1.14-2-1.74-2.93s-1.23-1.88-1.87-2.79q-15.45-21.7-42.6-21.7A51,51,0,0,0,462,244.69a52.21,52.21,0,0,0-18.34,16.25Q436,271.62,432,287.17t-4.06,35.75c0,.93,0,1.85,0,2.77,0,.75,0,1.49,0,2.23s0,1.25.06,1.87c0,.3,0,.6,0,.89,0,.47,0,.94.07,1.4s0,.64,0,1c0,.69.08,1.38.13,2.07v.11c0,.52.07,1,.11,1.56.05.68.1,1.35.16,2,0,.05,0,.09,0,.14.07.82.15,1.64.23,2.45s.18,1.65.28,2.46c.07.62.15,1.23.23,1.84.23,1.71.48,3.39.77,5,.08.49.17,1,.26,1.46.24,1.32.5,2.62.79,3.89.08.39.17.77.26,1.14s.16.73.25,1.08.17.7.26,1,.15.57.23.86c.12.5.25,1,.39,1.49a1.42,1.42,0,0,1,.07.22l.12.45c.17.57.33,1.13.51,1.69s.44,1.43.68,2.13.43,1.28.66,1.91c.11.32.23.65.35,1s.27.72.41,1.08l.18.46.63,1.55a.61.61,0,0,1,.05.12,1.89,1.89,0,0,1,.09.21c.16.37.31.73.47,1.08l0,0c.35.78.71,1.56,1.08,2.32.14.3.29.6.45.88.37.76.77,1.5,1.17,2.23.14.28.3.56.45.83s.23.39.34.58q.51.88,1.05,1.74.19.33.42.66t.57.87a2.68,2.68,0,0,0,.18.28c.29.43.58.85.88,1.27h0l.8,1.1.46.61c.21.27.41.54.62.8s.48.6.73.89.41.51.63.76c.58.69,1.18,1.37,1.79,2l.9.93c.21.22.43.44.65.65s.31.31.47.45l.56.54c.49.45,1,.9,1.5,1.33l.54.46q1,.86,2.1,1.65l.62.45.48.34.63.43.38.25.8.52q.71.45,1.44.87c.29.17.58.34.87.49l.27.15c.27.16.55.3.84.45l.7.36.31.14c.3.16.62.31.94.45.74.35,1.5.67,2.26,1l1.07.41.08,0h0c.46.17.92.33,1.39.48.63.21,1.28.42,1.92.6l1.28.35.77.19.33.08.21.05.85.19h0l1.07.22,1.09.2,1.07.17h.1c.34.06.69.11,1,.15l1.16.15.86.08.39,0,1,.07c.49.05,1,.07,1.47.09s.87.05,1.31.05h.25l1.61,0c1.13,0,2.25,0,3.35-.08s2.13-.14,3.16-.25c.53-.05,1.05-.12,1.57-.19s1.13-.15,1.69-.24c1-.16,2-.35,2.9-.56l.82-.19.58-.14.92-.23.12,0,1.14-.32h0c.4-.11.79-.23,1.18-.36.88-.28,1.74-.59,2.59-.93s1.78-.72,2.64-1.13l.74-.35.57-.28.63-.32c.22-.1.44-.22.65-.34s.58-.32.86-.49l.14-.07,1.07-.63a.05.05,0,0,1,0,0l.08,0,.81-.51c.83-.53,1.64-1.08,2.44-1.67.27-.2.53-.39.79-.6.41-.3.81-.62,1.2-.95.23-.18.44-.36.66-.55s.55-.47.83-.72h0c.38-.34.76-.68,1.13-1s.75-.7,1.11-1.07a57.59,57.59,0,0,0,6.19-7.36c.29-.42.59-.84.87-1.27s.44-.65.65-1l.37-.58c.2-.33.41-.65.6-1h0c.33-.53.65-1.06,1-1.61.09-.17.2-.35.29-.53s.36-.64.53-1L533,378c0-.09.09-.17.13-.25.21-.4.41-.8.61-1.2,1.07-2.13,2-4.38,3-6.72v0q.29-.73.57-1.5v0s0-.06,0-.09a.78.78,0,0,1,.05-.14c.21-.59.41-1.18.61-1.78s.4-1.2.59-1.82.38-1.23.56-1.85.35-1.26.53-1.9.4-1.52.59-2.3c.27-1.13.54-2.3.78-3.48.16-.75.32-1.52.46-2.31.25-1.32.48-2.67.7-4s.42-2.87.6-4.33.34-3,.48-4.5c.21-2.27.38-4.61.5-7a.49.49,0,0,0,0-.12c.11-2.35.19-4.76.22-7.22,0-.84,0-1.68,0-2.52Q544,314.08,543.23,306.14Zm-46.38,67.15q-.28.25-.57.48a14.94,14.94,0,0,1-3.44,2.11,13.36,13.36,0,0,1-2.07.73,17.85,17.85,0,0,1-4.83.63,17.47,17.47,0,0,1-5.53-.84,14.19,14.19,0,0,1-4.67-2.59c-.21-.17-.4-.34-.6-.52l0,0a28.07,28.07,0,0,1-6.93-11.11c-.33-.91-.66-1.85-1-2.83A80.28,80.28,0,0,1,464.35,345c-.08-.72-.16-1.46-.24-2.2l-.09-.94q-.82-8.7-.83-18.91A189.78,189.78,0,0,1,464.35,301c.35-3,.81-5.77,1.37-8.37a4.42,4.42,0,0,1,.1-.5,61.72,61.72,0,0,1,2.36-8.19,35.88,35.88,0,0,1,2.38-5.21,23.76,23.76,0,0,1,4.58-5.93,15.36,15.36,0,0,1,10.8-3.95,15.77,15.77,0,0,1,10.91,3.95,26.45,26.45,0,0,1,6.92,11s0,.08,0,.12A78.94,78.94,0,0,1,507.53,301a189.78,189.78,0,0,1,1.16,21.94,197.48,197.48,0,0,1-.92,19.77c-.06.67-.14,1.33-.21,2l0,.29a84,84,0,0,1-3,15.07c-.22.72-.45,1.42-.7,2.11A26.42,26.42,0,0,1,496.85,373.29Z" transform="translate(-142.37 -82.89)"/><path class="cls-12" d="M673,242.83V339.4h17.18v28.32H673v36H639.11v-36H569.7v-25.3q5.12-10.21,12.77-23.1t17.06-26.46q9.4-13.59,19.85-26.58a290.68,290.68,0,0,1,20.89-23.45Zm-33.89,42.25q-9,11.84-19.27,25.77a176.37,176.37,0,0,0-17.17,28.55h36.44Z" transform="translate(-142.37 -82.89)"/><path class="cls-3" d="M372.91,233.83V330.4h17.18v28.32H372.91v36H339v-36H269.61v-25.3q5.1-10.21,12.77-23.1t17.06-26.46q9.4-13.59,19.85-26.58a288.78,288.78,0,0,1,20.89-23.45ZM339,276.08q-9.06,11.84-19.27,25.77a176.44,176.44,0,0,0-17.18,28.55H339Z" transform="translate(-142.37 -82.89)"/><path class="cls-3" d="M486.28,364.77a14.94,14.94,0,0,1-3.44,2.11,17,17,0,0,0,3.5-1.26Zm47-67.63q-.42-4.53-1.08-8.78c-.23-1.42-.46-2.81-.72-4.17-.14-.69-.27-1.36-.41-2-.28-1.34-.58-2.65-.9-3.95-.17-.64-.33-1.29-.5-1.92-.35-1.27-.71-2.51-1.09-3.73s-.78-2.42-1.2-3.59c-.85-2.35-1.78-4.59-2.78-6.74-.75-1.62-1.55-3.17-2.4-4.68-.56-1-1.14-2-1.74-2.93s-1.23-1.88-1.87-2.79q-15.45-21.7-42.6-21.7A51,51,0,0,0,452,235.69a52.21,52.21,0,0,0-18.34,16.25Q426,262.62,422,278.17t-4.06,35.75c0,.93,0,1.85,0,2.77,0,.75,0,1.49,0,2.23s0,1.25.06,1.87c0,.29,0,.6,0,.89,0,.47,0,.94.07,1.4s0,.64,0,1c0,.69.08,1.38.12,2.07a.41.41,0,0,0,0,.11c0,.52.06,1,.11,1.56.05.68.1,1.35.16,2,0,.05,0,.09,0,.14.07.82.15,1.64.23,2.45s.18,1.65.28,2.46c.07.62.15,1.23.23,1.84.23,1.71.48,3.39.77,5,.08.49.17,1,.26,1.45.24,1.33.5,2.63.79,3.9.08.39.17.77.26,1.14s.16.73.25,1.08.17.7.26,1,.15.57.23.86c.12.5.25,1,.39,1.49a1.42,1.42,0,0,1,.07.22l.12.45c.17.57.33,1.13.51,1.69s.44,1.43.68,2.13.43,1.28.66,1.91c.11.32.23.65.35,1s.27.72.41,1.08l.18.46.63,1.55a.61.61,0,0,1,.05.12,1.89,1.89,0,0,1,.09.21c.16.37.31.73.47,1.08l0,0c.35.78.71,1.56,1.08,2.32.14.3.29.6.45.88.37.76.77,1.5,1.17,2.23.14.28.3.56.45.83s.23.39.34.58q.51.88,1.05,1.74.19.33.42.66t.57.87a2.68,2.68,0,0,0,.18.28c.29.43.58.85.88,1.27h0l.8,1.1.46.61c.21.27.41.54.62.8s.48.6.73.89.41.51.63.76c.58.69,1.18,1.37,1.79,2l.9.93c.21.22.43.44.65.65s.31.31.47.45l.56.54c.49.45,1,.9,1.5,1.33l.54.46q1,.86,2.1,1.65l.62.45.48.34.63.43.38.25.8.52q.71.45,1.44.87c.29.17.58.34.87.49l.27.15c.27.16.55.3.84.45l.7.36.31.14c.3.16.62.31.94.45.74.35,1.49.67,2.26,1l1.07.41.08,0h0c.46.17.92.33,1.39.48.63.21,1.28.42,1.92.6l1.28.35.77.19.33.08.21.05.85.19h0l1.07.22,1.09.2,1.07.17h.1c.34.06.69.11,1,.15l1.16.15.86.08.39,0,1,.07c.49.05,1,.07,1.47.09s.87.05,1.31.05h.25l1.61,0c1.13,0,2.25,0,3.35-.08s2.13-.14,3.16-.25c.53-.05,1.05-.12,1.57-.19s1.13-.15,1.69-.24c1-.16,2-.35,2.9-.56l.82-.19.58-.14.92-.23.12,0,1.14-.32h0c.4-.11.79-.23,1.18-.36.88-.28,1.74-.59,2.59-.93s1.78-.72,2.64-1.13l.74-.35.57-.28.63-.32c.22-.1.44-.22.65-.34s.58-.32.86-.49l.14-.07,1.07-.63a.05.05,0,0,1,0,0l.08,0,.81-.51c.83-.53,1.64-1.08,2.44-1.67.27-.2.53-.39.79-.6s.81-.62,1.2-.95c.23-.18.44-.36.66-.55s.55-.47.83-.72h0c.38-.34.76-.68,1.13-1s.75-.7,1.11-1.07a57.59,57.59,0,0,0,6.19-7.36c.29-.42.59-.84.87-1.27s.44-.65.65-1l.37-.58c.2-.33.41-.65.6-1h0c.33-.53.65-1.06,1-1.61.09-.17.2-.35.29-.53s.36-.64.53-1L523,369c0-.09.09-.17.13-.25.21-.4.41-.8.61-1.2,1.07-2.13,2-4.38,3-6.72v0c.19-.49.38-1,.56-1.5v0s0-.05,0-.08a.78.78,0,0,1,.05-.14c.21-.59.41-1.18.61-1.78s.4-1.2.59-1.82.38-1.23.56-1.85.35-1.26.53-1.9.4-1.52.59-2.3c.27-1.13.54-2.3.78-3.48.16-.75.32-1.52.46-2.31.25-1.32.48-2.67.7-4s.42-2.87.6-4.33.34-3,.48-4.5c.21-2.27.38-4.61.5-7a.49.49,0,0,0,0-.12c.11-2.35.19-4.76.22-7.22,0-.84,0-1.68,0-2.52Q534,305.08,533.23,297.14Zm-46.38,67.15q-.28.25-.57.48a14.94,14.94,0,0,1-3.44,2.11,13.36,13.36,0,0,1-2.07.73,17.85,17.85,0,0,1-4.83.63,17.47,17.47,0,0,1-5.53-.84,14.19,14.19,0,0,1-4.67-2.59c-.21-.17-.4-.34-.6-.52l0,0a28.07,28.07,0,0,1-6.93-11.11c-.33-.91-.66-1.85-1-2.83A80.28,80.28,0,0,1,454.35,336c-.08-.72-.16-1.46-.24-2.2l-.09-.94q-.82-8.7-.83-18.91A189.78,189.78,0,0,1,454.35,292c.35-3,.81-5.77,1.37-8.38a4.74,4.74,0,0,1,.1-.49,61.72,61.72,0,0,1,2.36-8.19,35.88,35.88,0,0,1,2.38-5.21,23.76,23.76,0,0,1,4.58-5.93,15.36,15.36,0,0,1,10.8-3.95,15.77,15.77,0,0,1,10.91,3.95,26.45,26.45,0,0,1,6.92,11s0,.08,0,.12A78.94,78.94,0,0,1,497.53,292a189.78,189.78,0,0,1,1.16,21.94,197.48,197.48,0,0,1-.92,19.77c-.06.67-.14,1.33-.21,2l0,.29a84,84,0,0,1-3,15.07c-.22.72-.45,1.42-.7,2.11A26.42,26.42,0,0,1,486.85,364.29Z" transform="translate(-142.37 -82.89)"/><path class="cls-3" d="M663,233.83V330.4h17.18v28.32H663v36H629.11v-36H559.7v-25.3q5.12-10.21,12.77-23.1t17.06-26.46q9.4-13.59,19.85-26.58a290.68,290.68,0,0,1,20.89-23.45Zm-33.89,42.25q-9,11.84-19.27,25.77a176.37,176.37,0,0,0-17.17,28.55h36.44Z" transform="translate(-142.37 -82.89)"/><path class="cls-13" d="M475.79,273.18c6-5.54,16.64-7,24.06,12.78,4.51,12,10.17,7.65,13.64,14.47,2.43,4.77-.15,10.75,1.25,15.82,2.08,7.57,11.89,7.41,11.29,21.11-.73,16.8-79.61,21.12-96.57,1.56-6.85-7.91,2.51-13.18,6-18.21,2.95-4.2-1.89-8.49-1.58-15.41s12.6-12.72,14.29-16.52c2.32-5.25.68-16.28,13-19.21C468.52,267.81,475.79,273.18,475.79,273.18Z" transform="translate(-142.37 -82.89)"/><path class="cls-14" d="M475.19,284.88c6.94.31,14.87,6.77,14.87,19.87,0,9.28-5.59,13.75-8.52,14.95l1.13,7.33,10.49,5.86,2.92,7.07-18.82,14.51-18-13.87,2.4-9.47,6.86-5.86.46-5.91a20.76,20.76,0,0,1-6.9-15C462.08,292.06,468.05,284.57,475.19,284.88Z" transform="translate(-142.37 -82.89)"/><path class="cls-15" d="M471.59,313.14a.52.52,0,0,1-.37-.19.5.5,0,0,1,.08-.71c3.41-2.74,7.09-2.56,9.86.45a.51.51,0,1,1-.75.69c-3.4-3.72-7.06-1.49-8.48-.35A.53.53,0,0,1,471.59,313.14Z" transform="translate(-142.37 -82.89)"/><path class="cls-15" d="M482.75,300.08c-.06,1.34-.7,2.4-1.44,2.37S480,301.3,480.09,300s.7-2.4,1.43-2.37S482.81,298.74,482.75,300.08Z" transform="translate(-142.37 -82.89)"/><path class="cls-15" d="M472.31,299.62c-.06,1.34-.7,2.4-1.44,2.37s-1.28-1.15-1.22-2.49.7-2.4,1.43-2.37S472.37,298.28,472.31,299.62Z" transform="translate(-142.37 -82.89)"/><path class="cls-13" d="M475.19,284.88s1.26,8.76,17.09,9.69L493.87,284l-17.75-5.63-20.47,4.78,1.26,9.07S472.73,298.17,475.19,284.88Z" transform="translate(-142.37 -82.89)"/><path class="cls-16" d="M525.34,359.37s5.12,0,6.35-2.14c0,0,2.57,1.84-1,3.75A3.83,3.83,0,0,1,525.34,359.37Z" transform="translate(-142.37 -82.89)"/><path class="cls-14" d="M519.18,365.85s1.85-6,5.62-6.44c6.14-.79,9.7,2.9,11.76,3,6.86.3,8.55-1.28,9.56-2.83,0,0,2.74,1.47-.57,3.82-1.87,1.33-4.42,2.24-11.82,2.1-2.57-.05-7.38,3.07-9,5.05Z" transform="translate(-142.37 -82.89)"/><polygon class="cls-17" points="374.12 283.79 375.6 280.6 386.82 288.6 381.44 293.07 374.12 283.79"/><path class="cls-16" d="M425.24,353.39s-5.1-.41-6.14-2.68c0,0-2.72,1.61.66,3.81A3.82,3.82,0,0,0,425.24,353.39Z" transform="translate(-142.37 -82.89)"/><path class="cls-14" d="M432.35,360.67s-1.32-6.1-5-6.91c-6.05-1.32-11.06.89-13.1,1.18-4.79.68-7.42-2-8.29-3.59,0,0-3.72,1.6,1,5.31,2.16,1.71,3.6,1.87,11,2.38,2.56.17,7.08,3.7,8.48,5.81Z" transform="translate(-142.37 -82.89)"/><polygon class="cls-17" points="293.53 276.88 291.29 274.94 281.21 282.26 285.22 285.64 293.53 276.88"/><path class="cls-17" d="M499,379.86h0c-.22,1.82-.49,3.53-.83,5.1h0a23.57,23.57,0,0,1-2,5.89l-2.83,4.48c-.39.13-.78.25-1.18.36h0l-1.14.32-.12,0-.92.23-.58.14-.82.19c-1,.21-1.92.4-2.9.56-.56.09-1.12.17-1.69.24s-1,.14-1.57.19c-1,.11-2.09.19-3.16.25s-2.22.08-3.35.08l-1.61,0h-.25c-.44,0-.88,0-1.31-.05s-1,0-1.47-.09l-1-.07-.39,0-.86-.08-1.16-.15c-.34,0-.69-.09-1-.15h-.1l-1.07-.17-1.09-.2-1.07-.22h0l-.85-.19-.21-.05-.33-.08-.77-.19-1.28-.35c-.64-.18-1.29-.39-1.92-.6-.47-.15-.93-.31-1.39-.48h0l-4.3-9.11-.06-1.84-.2-6.12-1-28.45-.21-6.55s2-8.24,2.92-8.82l.13-.08c1.59-1,13.21-7.8,14.32-8.45,0,0,0,0,.05,0h0c-.07.21-1.72,4.84-.54,9.12,0,0,0,.06,0,.1,1.26,4.41,7.9,10,7.9,10s5.52-4.21,8.05-7.88a5.24,5.24,0,0,0,1.22-3.28,13.92,13.92,0,0,0-2.48-6.32h0l0,0h0l10.57,6.14,4.27,2.48.22.12s.76,6.25,1.32,14.68C499.71,359.46,500.06,370.91,499,379.86Z" transform="translate(-142.37 -82.89)"/><path class="cls-18" d="M461.62,361.68s6.91,6.12,11.34,4.88a12.24,12.24,0,0,1-10.59-.24C456.79,363.48,461.62,361.68,461.62,361.68Z" transform="translate(-142.37 -82.89)"/><path class="cls-18" d="M466.83,397.29c-1.48-.22-2.92-.5-4.34-.84-.8-.18-1.59-.39-2.38-.62-.15-4.22,4.6-27.92,4.6-27.92l.45,3.57.65,5.19.56,14.14Z" transform="translate(-142.37 -82.89)"/><path class="cls-18" d="M492.19,395.7h0l-1.14.32c-.8.23-1.62.42-2.44.6l-3-12.25L486,375l.52-6.66v-.11h0a.13.13,0,0,0,0,.06v0C486.94,369.94,492,391.1,492.19,395.7Z" transform="translate(-142.37 -82.89)"/><path class="cls-18" d="M490.82,363s-7.41,5.49-11.72,3.87a12.23,12.23,0,0,0,10.57.69C495.48,365.17,490.82,363,490.82,363Z" transform="translate(-142.37 -82.89)"/><path class="cls-19" d="M526.84,376.47s-10.19,6.29-16.73,9.25c-2.32,1-4.17,1.68-5,1.46a14.32,14.32,0,0,1-4.32-1.81l1.26,2.76v0l1.2,2.62a47.1,47.1,0,0,1-9.93,4.57c-.39.13-.78.25-1.18.36h0l-1.14.32c-1.85-6.61-3.41-12.72-3.58-15-.13-1.68-.47-6.55-.92-12.72,0,0,0,0,0,0a.13.13,0,0,1,0-.06c-.06-.85-.13-1.72-.2-2.61-.33-4.36-.69-9.17-1.08-13.89-.08-1.09-.17-2.16-.26-3.23-.35-4.3-.72-8.41-1.06-11.87a77.35,77.35,0,0,0-1.27-9.6h0c.72.29,23.42,9.42,25.68,13.42.67,1.19,1.23,4.2,1.67,7.86,1.06,8.82,1.49,21.43,1.49,21.43l4.89-5.39.75.87,4.83,5.6,3.33,3.88Z" transform="translate(-142.37 -82.89)"/><path class="cls-19" d="M468.52,325.27s-.2,3.5-.55,9.13c-.22,3.41-.49,7.6-.83,12.28-.11,1.53-.22,3.11-.34,4.74-.31,4.19-.66,8.67-1.05,13.24a.76.76,0,0,0,0,.15c-.07.87-.15,1.74-.22,2.61l-.36,4.06c-.78,8.71-1.68,17.44-2.67,25l-.33-.08-.77-.19-1.28-.35c-.64-.18-1.29-.39-1.92-.6-.47-.15-.93-.31-1.39-.48h0l-.08,0-1.07-.41c-.77-.3-1.52-.62-2.26-1-.32-.14-.64-.29-.94-.45l-.31-.14-.7-.36c-.29-.15-.57-.29-.84-.45l-.27-.15c-.29-.15-.58-.32-.87-.49q-.74-.42-1.44-.87l1.13-4a6.14,6.14,0,0,1-4.61.51c-1.26-.44-6.59-5.83-11.18-10.65h0c-3.82-4-7.13-7.61-7.13-7.61l.66-.71,1-1,7.33-7.77.45-.48,5.24,4.26s1.33-8.22,2.95-15.69a85.86,85.86,0,0,1,2.33-9,75.13,75.13,0,0,1,7.88-5.38,154.91,154.91,0,0,1,14.41-7.51s0,0,.05,0h0Z" transform="translate(-142.37 -82.89)"/><path class="cls-20" d="M496.27,350.82s1.78,33.42,4.56,34.55c.54,1.35,1.27,2.78,1.27,2.78l-3.87-2.91-2.47-12.1Z" transform="translate(-142.37 -82.89)"/><path class="cls-20" d="M453,348.93s.54,33.36-2.33,34.24c-.66,1.3-1.51,2.66-1.51,2.66l4.1-2.56.8-9.54Z" transform="translate(-142.37 -82.89)"/></svg>